PathFileType	4	(X/Y/Z)	./resultDataOpenSim/trcMotMarkerGrf/sub06/qtm-15-01.trc
DataRate	CameraRate	NumFrames	NumMarkers	Units	OrigDataRate	OrigDataStartFrame	OrigNumFrames
250.000000	250.000000	13	24	m	250.000000	449	513
Frame#	Time	L.Toe.Tip			R.Toe.Tip			L.Ankle.Lat			R.Ankle.Lat			L.Ankle.Med			R.Ankle.Med			L.Heel			R.Heel			L.Knee.Lat			R.Knee.Lat			L.Knee.Med			R.Knee.Med			L.Thigh.Upper			R.Thigh.Upper			L.ASIS			R.ASIS			V.Sacral			L.Acromium			R.Acromium			C7			L.Elbow			R.Elbow			L.Wrist.Lat			R.Wrist.Lat
		X1	Y1	Z1	X2	Y2	Z2	X3	Y3	Z3	X4	Y4	Z4	X5	Y5	Z5	X6	Y6	Z6	X7	Y7	Z7	X8	Y8	Z8	X9	Y9	Z9	X10	Y10	Z10	X11	Y11	Z11	X12	Y12	Z12	X13	Y13	Z13	X14	Y14	Z14	X15	Y15	Z15	X16	Y16	Z16	X17	Y17	Z17	X18	Y18	Z18	X19	Y19	Z19	X20	Y20	Z20	X21	Y21	Z21	X22	Y22	Z22	X23	Y23	Z23	X24	Y24	Z24

449	1.792	1.6935258	0.03344813	-0.12637067	1.4191023	0.089496278	0.092597214	1.5714104	0.069861067	-0.15425625	1.3721587	0.22514241	0.097637647	1.5682214	0.082533885	-0.06687662	1.4179634	0.21198838	0.023087075	1.4921808	0.045520165	-0.11287097	1.3381325	0.24858682	0.027830931	1.6727042	0.43261833	-0.15764465	1.67385	0.45193734	0.1473886	1.6349727	0.43161886	-0.040998251	1.6817714	0.42672045	0.013017773	1.5952446	0.8212631	-0.22168642	1.5432157	0.79754769	0.1213943	1.6574991	0.86842671	-0.17024889	1.6440059	0.86288706	0.076543557	1.4574306	0.93120853	-0.053120598	1.5947708	1.3422914	-0.24198232	1.5730423	1.3347062	0.1215676	1.5008097	1.3775342	-0.066018627	1.5221674	1.0239775	-0.28096518	1.5318464	1.0100662	0.19273892	1.6778382	0.83096453	-0.31617411	1.7544187	0.90226571	0.15217155
450	1.796	1.6935812	0.033449599	-0.12640208	1.4349659	0.089397614	0.093714153	1.5714825	0.070269156	-0.15424045	1.384031	0.22344062	0.097525467	1.5685777	0.083052037	-0.066903188	1.4302539	0.21074738	0.023186002	1.4923215	0.046037699	-0.11279857	1.3493539	0.245558	0.027450773	1.6725574	0.43300052	-0.15747718	1.6824131	0.45509893	0.14746997	1.6342323	0.43208382	-0.040844149	1.6904848	0.43010892	0.013013385	1.5981201	0.82254335	-0.22173853	1.5454922	0.80046119	0.12289417	1.6613256	0.86983787	-0.17048232	1.6473657	0.86507176	0.076424218	1.4619177	0.93283909	-0.052986391	1.599583	1.3442873	-0.24194692	1.5773384	1.3363435	0.12156414	1.5052978	1.3791433	-0.066115961	1.5293934	1.0250511	-0.28120064	1.5329181	1.012379	0.19211906	1.6899744	0.83498946	-0.31370981	1.7525774	0.89799139	0.15536189
451	1.8	1.6936339	0.033448782	-0.12643025	1.4515176	0.089397234	0.094810972	1.5715568	0.070715659	-0.15421197	1.3961002	0.22151615	0.097578844	1.5688799	0.083587206	-0.066929409	1.4425613	0.2093549	0.023259065	1.4924705	0.046600476	-0.11271249	1.3605139	0.24230479	0.027086927	1.6724003	0.43338903	-0.15731957	1.6908133	0.45820928	0.14748949	1.6335	0.4326678	-0.040711626	1.6991045	0.43350746	0.012998661	1.6013534	0.82378001	-0.22171342	1.5479676	0.8033776	0.12412959	1.6650699	0.87128576	-0.17068002	1.6502599	0.86721923	0.07644032	1.4663639	0.93438557	-0.052905971	1.6043175	1.3462519	-0.24185392	1.5816136	1.3379479	0.12157238	1.5097739	1.3807229	-0.06619144	1.5365897	1.0261643	-0.28145308	1.534058	1.0146737	0.19164914	1.70222	0.83912217	-0.31119571	1.7505802	0.89390572	0.15859084
452	1.804	1.693686	0.033450722	-0.12645277	1.468333	0.089438532	0.095905578	1.5716275	0.071201644	-0.15416964	1.4084327	0.21935965	0.097860659	1.5691418	0.084143599	-0.066952556	1.4549209	0.20782178	0.023321326	1.492627	0.047209667	-0.11261586	1.3715422	0.23884481	0.026735301	1.6722238	0.4337999	-0.15717875	1.6990745	0.46126313	0.14745181	1.6327689	0.43338222	-0.040585269	1.7075852	0.43691202	0.012973712	1.6051449	0.82499365	-0.22159234	1.5510212	0.80628174	0.12514215	1.6688711	0.87275312	-0.17083165	1.6536665	0.8694287	0.0763055	1.4708583	0.93589004	-0.052815974	1.6089937	1.3481891	-0.24171962	1.5858799	1.3395176	0.12158588	1.5142328	1.382266	-0.066245764	1.5437424	1.0273136	-0.28170583	1.5352997	1.0169519	0.19123661	1.7142898	0.84339388	-0.30866093	1.7484373	0.89001404	0.16185003
453	1.808	1.6937363	0.03345788	-0.12647	1.4849071	0.089410854	0.097024716	1.571701	0.07172723	-0.15411997	1.4209588	0.21699128	0.098277755	1.5693987	0.084734597	-0.066969134	1.4673466	0.20615362	0.023382195	1.4927876	0.047867759	-0.11251139	1.382562	0.23519637	0.026411065	1.6720288	0.43424662	-0.15705859	1.7071972	0.46426196	0.14736928	1.6319663	0.43424529	-0.040438458	1.7158677	0.44032736	0.012946414	1.6092453	0.82619187	-0.22142397	1.5542868	0.80921974	0.12610273	1.6728541	0.87422574	-0.17092436	1.6578677	0.87171016	0.075943628	1.4754775	0.93740427	-0.052582042	1.6136341	1.3500992	-0.24156707	1.5901516	1.3410475	0.12159727	1.5186717	1.3837664	-0.066287616	1.5508362	1.0284838	-0.28193695	1.5365782	1.0192265	0.19085389	1.7260159	0.84782072	-0.30612681	1.7461682	0.88631556	0.16513775
454	1.812	1.6937804	0.033469043	-0.12648521	1.5009734	0.089232423	0.098186434	1.571789	0.072293071	-0.15407118	1.4335095	0.21445952	0.098639848	1.5696694	0.085365382	-0.066977215	1.4798416	0.20435582	0.02344031	1.4929492	0.04858029	-0.11239631	1.3939336	0.23137037	0.026149077	1.6718326	0.43473368	-0.15695938	1.7151777	0.46720493	0.14725141	1.6310359	0.43525953	-0.040252967	1.7239157	0.44375676	0.012927431	1.6132616	0.82736237	-0.22125037	1.558009	0.81208577	0.12700108	1.6770129	0.87568473	-0.1709674	1.662562	0.87401161	0.075446423	1.4802389	0.93893603	-0.052101085	1.6182524	1.3519761	-0.24141217	1.5944366	1.3425325	0.1216028	1.5230948	1.3852234	-0.066325036	1.5578698	1.0296544	-0.2821413	1.5377871	1.0214821	0.19049413	1.7374829	0.85238291	-0.30359048	1.7437895	0.88280716	0.16845497
455	1.816	1.6938162	0.033481493	-0.12650314	1.5165182	0.088897301	0.099390693	1.5718955	0.072897191	-0.15402566	1.4459918	0.21180586	0.098854124	1.5699528	0.086032241	-0.066978364	1.4924062	0.20244082	0.023484034	1.4931172	0.049350255	-0.11226586	1.4058715	0.2273618	0.025964893	1.6716558	0.43525941	-0.15688356	1.723025	0.4700847	0.14709581	1.6301014	0.4363783	-0.04004901	1.7317308	0.44717269	0.012920008	1.6170839	0.82849248	-0.22102028	1.563242	0.81461518	0.12761541	1.6811636	0.8770957	-0.17100441	1.6674124	0.87628494	0.074913783	1.4850714	0.94045848	-0.051394501	1.6228572	1.353807	-0.24125744	1.5987355	1.343967	0.12160398	1.5275104	1.3866309	-0.066360331	1.5648889	1.0308094	-0.28236793	1.5388793	1.023692	0.19014785	1.7488139	0.85704937	-0.30104156	1.7413133	0.87948655	0.17179696
456	1.82	1.6938457	0.03349398	-0.12652785	1.5317785	0.08846464	0.10062101	1.5720169	0.073534915	-0.15398003	1.4584353	0.20904304	0.098957819	1.5702518	0.086731394	-0.06697905	1.5050494	0.20042432	0.023501373	1.4933017	0.05017623	-0.11211594	1.4181396	0.22315201	0.025833133	1.6715069	0.43582394	-0.15683914	1.7307363	0.47289057	0.14689527	1.6294239	0.43752506	-0.039873836	1.7393432	0.45051791	0.012924071	1.6208271	0.82958142	-0.2206064	1.5709753	0.81656785	0.1277235	1.6851622	0.87842728	-0.17107699	1.6722661	0.87850148	0.074396327	1.4898322	0.94194812	-0.050608127	1.6274534	1.3555798	-0.24109951	1.6030287	1.3453473	0.12160623	1.531921	1.3879791	-0.066392888	1.5719691	1.0319363	-0.28269824	1.5399874	1.0258734	0.18980761	1.7600488	0.86179885	-0.29847225	1.7387479	0.87634891	0.17514928
457	1.824	1.6938712	0.03350683	-0.1265617	1.5470976	0.087993446	0.10185884	1.5721478	0.074202514	-0.15393112	1.4708977	0.20616878	0.099015511	1.5705834	0.087459932	-0.066988555	1.5178119	0.19830898	0.023492818	1.4935037	0.051055966	-0.11194845	1.4303576	0.21873536	0.025724524	1.6713856	0.43643241	-0.15683779	1.7382959	0.47561287	0.14664693	1.62915	0.43865617	-0.039751628	1.7467839	0.45375436	0.012943176	1.6245929	0.83063109	-0.21993466	1.5812817	0.81789391	0.12729805	1.6891092	0.8796763	-0.17118599	1.6770926	0.88064344	0.073910909	1.494375	0.94339625	-0.04991141	1.6320393	1.357288	-0.24093843	1.6072299	1.3466856	0.12161127	1.5363214	1.3892653	-0.066418351	1.5791426	1.033026	-0.28316228	1.5413344	1.0280797	0.18947881	1.7711352	0.86662599	-0.29588321	1.7360934	0.87338748	0.17849485
458	1.828	1.6938943	0.033519732	-0.12660509	1.562647	0.087490105	0.1030916	1.572282	0.074897268	-0.15387874	1.4834117	0.20318219	0.099072705	1.5709488	0.08821379	-0.067009525	1.5307766	0.19608241	0.02346797	1.4937163	0.051985358	-0.11177365	1.4423887	0.21413659	0.025642218	1.6712924	0.43709065	-0.15688765	1.7456965	0.47824531	0.14635098	1.6292379	0.43977457	-0.03966421	1.7540744	0.45688977	0.01297828	1.6283397	0.83163939	-0.21915823	1.5931604	0.81875605	0.12654432	1.6931385	0.88086563	-0.17130747	1.6819015	0.88270026	0.073459393	1.4986592	0.94479961	-0.049390394	1.6366062	1.3589296	-0.240773	1.6111535	1.3480163	0.12160839	1.5407087	1.3904919	-0.066429585	1.5863734	1.0340746	-0.28371208	1.5429664	1.03032	0.18917714	1.7819399	0.87153925	-0.29328748	1.7333496	0.87059938	0.18182964
459	1.832	1.6939158	0.033530991	-0.12665654	1.5783588	0.086922815	0.10430924	1.5724152	0.075613634	-0.15382553	1.4959964	0.20007803	0.099154486	1.5712797	0.088988419	-0.067026728	1.5440432	0.19373679	0.023436551	1.4939357	0.052956757	-0.11160036	1.4543567	0.20939281	0.025606037	1.6712331	0.43779651	-0.15698491	1.7529567	0.48078164	0.14600953	1.6296025	0.44089377	-0.039575047	1.7612218	0.45994889	0.013022831	1.6318904	0.83261083	-0.21867673	1.6049828	0.81944199	0.12580388	1.6971986	0.8820236	-0.17142317	1.6866995	0.88466461	0.073039033	1.502794	0.946151	-0.049025975	1.6411492	1.3605027	-0.24059677	1.6146429	1.3493679	0.12158497	1.5450904	1.3916633	-0.066422709	1.5936058	1.035079	-0.28428348	1.54472	1.0325315	0.18891559	1.7923364	0.87654896	-0.290702	1.7305273	0.86798601	0.18517057
460	1.836	1.6939371	0.03353954	-0.12671368	1.5941247	0.086279068	0.10550111	1.5725511	0.076345153	-0.15377909	1.5086729	0.19684565	0.099267216	1.5714028	0.089781057	-0.067003122	1.5576348	0.19127878	0.02342065	1.4941625	0.053962782	-0.1114303	1.4664833	0.204529	0.025619276	1.6712143	0.43853895	-0.15711555	1.760102	0.48321748	0.14562329	1.6301657	0.44201749	-0.039452532	1.7681973	0.46293444	0.013068887	1.6351034	0.83356455	-0.21883	1.61514	0.82025761	0.12541095	1.7011835	0.883161	-0.17152791	1.691487	0.88653059	0.072647629	1.5069326	0.94743607	-0.048746131	1.6456749	1.3620074	-0.24040493	1.6178302	1.3507157	0.12155291	1.5494758	1.3927945	-0.066396197	1.6008117	1.0360338	-0.28484853	1.5464598	1.0346532	0.1886988	1.8023873	0.88164187	-0.28812836	1.7276478	0.86554946	0.18853769
461	1.84	1.693959	0.033546852	-0.12677505	1.609943	0.085590842	0.10665891	1.5727011	0.077090751	-0.15375201	1.521463	0.19348562	0.099408302	1.5711343	0.090590001	-0.066903233	1.571364	0.18872068	0.023458221	1.4943981	0.054998247	-0.11126475	1.4789098	0.19955308	0.025661748	1.6712371	0.43930723	-0.15726787	1.7671325	0.48555632	0.14518707	1.6307911	0.44314028	-0.039283497	1.7749415	0.46582166	0.013107413	1.6380796	0.83452842	-0.21950802	1.6227359	0.8214264	0.12553744	1.7050718	0.88426609	-0.17162659	1.6962702	0.88829417	0.072285654	1.5111419	0.94864353	-0.048486668	1.6501893	1.3634472	-0.24019844	1.6211292	1.3519839	0.12154943	1.553863	1.3939178	-0.066347601	1.6079985	1.0369313	-0.28541634	1.5481958	1.0366858	0.18852489	1.8123868	0.88677248	-0.28554705	1.7247309	0.86329027	0.1919212
